<mxfile host="65bd71144e">
    <diagram id="l0ba4gm8rq2NGziQEH8P" name="ページ3">
        <mxGraphModel dx="851" dy="524" grid="0" gridSize="10" guides="1" tooltips="1" connect="1" arrows="1" fold="1" page="0" pageScale="1" pageWidth="827" pageHeight="1169" math="0" shadow="0">
            <root>
                <mxCell id="0"/>
                <mxCell id="1" parent="0"/>
                <mxCell id="houy_Up9C2UZ-9tv4yLi-1" value="" style="shape=umlLifeline;perimeter=lifelinePerimeter;whiteSpace=wrap;html=1;container=1;dropTarget=0;collapsible=0;recursiveResize=0;outlineConnect=0;portConstraint=eastwest;newEdgeStyle={&quot;curved&quot;:0,&quot;rounded&quot;:0};participant=umlActor;" parent="1" vertex="1">
                    <mxGeometry x="9" y="10" width="20" height="1021" as="geometry"/>
                </mxCell>
                <mxCell id="houy_Up9C2UZ-9tv4yLi-2" value="Product&lt;br&gt;Category&lt;br&gt;&lt;div&gt;Controller&lt;/div&gt;" style="shape=umlLifeline;perimeter=lifelinePerimeter;whiteSpace=wrap;html=1;container=1;dropTarget=0;collapsible=0;recursiveResize=0;outlineConnect=0;portConstraint=eastwest;newEdgeStyle={&quot;curved&quot;:0,&quot;rounded&quot;:0};" parent="1" vertex="1">
                    <mxGeometry x="63" y="15" width="100" height="1018" as="geometry"/>
                </mxCell>
                <mxCell id="houy_Up9C2UZ-9tv4yLi-35" value="" style="html=1;points=[[0,0,0,0,5],[0,1,0,0,-5],[1,0,0,0,5],[1,1,0,0,-5]];perimeter=orthogonalPerimeter;outlineConnect=0;targetShapes=umlLifeline;portConstraint=eastwest;newEdgeStyle={&quot;curved&quot;:0,&quot;rounded&quot;:0};" parent="houy_Up9C2UZ-9tv4yLi-2" vertex="1">
                    <mxGeometry x="48" y="61" width="10" height="159" as="geometry"/>
                </mxCell>
                <mxCell id="houy_Up9C2UZ-9tv4yLi-56" value="" style="html=1;points=[[0,0,0,0,5],[0,1,0,0,-5],[1,0,0,0,5],[1,1,0,0,-5]];perimeter=orthogonalPerimeter;outlineConnect=0;targetShapes=umlLifeline;portConstraint=eastwest;newEdgeStyle={&quot;curved&quot;:0,&quot;rounded&quot;:0};" parent="houy_Up9C2UZ-9tv4yLi-2" vertex="1">
                    <mxGeometry x="43" y="588" width="10" height="80" as="geometry"/>
                </mxCell>
                <mxCell id="houy_Up9C2UZ-9tv4yLi-60" value="セッション破棄" style="html=1;align=left;spacingLeft=2;endArrow=block;rounded=0;edgeStyle=orthogonalEdgeStyle;curved=0;rounded=0;fontSize=12;startSize=8;endSize=8;" parent="houy_Up9C2UZ-9tv4yLi-2" edge="1">
                    <mxGeometry x="-0.575" y="11" relative="1" as="geometry">
                        <mxPoint x="53" y="615" as="sourcePoint"/>
                        <Array as="points">
                            <mxPoint x="56" y="615"/>
                            <mxPoint x="86" y="615"/>
                            <mxPoint x="86" y="637"/>
                        </Array>
                        <mxPoint x="61" y="637" as="targetPoint"/>
                        <mxPoint as="offset"/>
                    </mxGeometry>
                </mxCell>
                <mxCell id="houy_Up9C2UZ-9tv4yLi-10" value="Product&lt;br&gt;Category&lt;br&gt;&lt;div&gt;Service&lt;/div&gt;" style="shape=umlLifeline;perimeter=lifelinePerimeter;whiteSpace=wrap;html=1;container=1;dropTarget=0;collapsible=0;recursiveResize=0;outlineConnect=0;portConstraint=eastwest;newEdgeStyle={&quot;curved&quot;:0,&quot;rounded&quot;:0};" parent="1" vertex="1">
                    <mxGeometry x="356" y="15" width="68" height="1020" as="geometry"/>
                </mxCell>
                <mxCell id="4" value="" style="html=1;points=[[0,0,0,0,5],[0,1,0,0,-5],[1,0,0,0,5],[1,1,0,0,-5]];perimeter=orthogonalPerimeter;outlineConnect=0;targetShapes=umlLifeline;portConstraint=eastwest;newEdgeStyle={&quot;curved&quot;:0,&quot;rounded&quot;:0};" parent="houy_Up9C2UZ-9tv4yLi-10" vertex="1">
                    <mxGeometry x="29" y="150" width="10" height="50" as="geometry"/>
                </mxCell>
                <mxCell id="houy_Up9C2UZ-9tv4yLi-14" value="Product&lt;div&gt;Category&lt;/div&gt;&lt;div&gt;Repository&lt;/div&gt;" style="shape=umlLifeline;perimeter=lifelinePerimeter;whiteSpace=wrap;html=1;container=1;dropTarget=0;collapsible=0;recursiveResize=0;outlineConnect=0;portConstraint=eastwest;newEdgeStyle={&quot;curved&quot;:0,&quot;rounded&quot;:0};" parent="1" vertex="1">
                    <mxGeometry x="462" y="15" width="100" height="1019" as="geometry"/>
                </mxCell>
                <mxCell id="7" value="" style="html=1;points=[[0,0,0,0,5],[0,1,0,0,-5],[1,0,0,0,5],[1,1,0,0,-5]];perimeter=orthogonalPerimeter;outlineConnect=0;targetShapes=umlLifeline;portConstraint=eastwest;newEdgeStyle={&quot;curved&quot;:0,&quot;rounded&quot;:0};" parent="houy_Up9C2UZ-9tv4yLi-14" vertex="1">
                    <mxGeometry x="45" y="153" width="10" height="47" as="geometry"/>
                </mxCell>
                <mxCell id="houy_Up9C2UZ-9tv4yLi-22" value="Product&lt;br&gt;Category&lt;br&gt;&lt;div&gt;Form&lt;/div&gt;" style="shape=umlLifeline;perimeter=lifelinePerimeter;whiteSpace=wrap;html=1;container=1;dropTarget=0;collapsible=0;recursiveResize=0;outlineConnect=0;portConstraint=eastwest;newEdgeStyle={&quot;curved&quot;:0,&quot;rounded&quot;:0};" parent="1" vertex="1">
                    <mxGeometry x="202" y="15" width="57" height="1020" as="geometry"/>
                </mxCell>
                <mxCell id="houy_Up9C2UZ-9tv4yLi-38" value="" style="html=1;points=[[0,0,0,0,5],[0,1,0,0,-5],[1,0,0,0,5],[1,1,0,0,-5]];perimeter=orthogonalPerimeter;outlineConnect=0;targetShapes=umlLifeline;portConstraint=eastwest;newEdgeStyle={&quot;curved&quot;:0,&quot;rounded&quot;:0};" parent="houy_Up9C2UZ-9tv4yLi-22" vertex="1">
                    <mxGeometry x="23.5" y="70" width="10" height="41" as="geometry"/>
                </mxCell>
                <mxCell id="houy_Up9C2UZ-9tv4yLi-23" value="Product&lt;br&gt;Category&lt;br&gt;&lt;div&gt;Helper&lt;/div&gt;" style="shape=umlLifeline;perimeter=lifelinePerimeter;whiteSpace=wrap;html=1;container=1;dropTarget=0;collapsible=0;recursiveResize=0;outlineConnect=0;portConstraint=eastwest;newEdgeStyle={&quot;curved&quot;:0,&quot;rounded&quot;:0};" parent="1" vertex="1">
                    <mxGeometry x="278" y="15" width="57" height="1019" as="geometry"/>
                </mxCell>
                <mxCell id="houy_Up9C2UZ-9tv4yLi-33" value="DataBase" style="shape=umlLifeline;perimeter=lifelinePerimeter;whiteSpace=wrap;html=1;container=1;dropTarget=0;collapsible=0;recursiveResize=0;outlineConnect=0;portConstraint=eastwest;newEdgeStyle={&quot;curved&quot;:0,&quot;rounded&quot;:0};" parent="1" vertex="1">
                    <mxGeometry x="690" y="10" width="100" height="1039" as="geometry"/>
                </mxCell>
                <mxCell id="10" value="" style="html=1;points=[[0,0,0,0,5],[0,1,0,0,-5],[1,0,0,0,5],[1,1,0,0,-5]];perimeter=orthogonalPerimeter;outlineConnect=0;targetShapes=umlLifeline;portConstraint=eastwest;newEdgeStyle={&quot;curved&quot;:0,&quot;rounded&quot;:0};" parent="houy_Up9C2UZ-9tv4yLi-33" vertex="1">
                    <mxGeometry x="45" y="160" width="10" height="53" as="geometry"/>
                </mxCell>
                <mxCell id="houy_Up9C2UZ-9tv4yLi-47" value="" style="html=1;points=[[0,0,0,0,5],[0,1,0,0,-5],[1,0,0,0,5],[1,1,0,0,-5]];perimeter=orthogonalPerimeter;outlineConnect=0;targetShapes=umlLifeline;portConstraint=eastwest;newEdgeStyle={&quot;curved&quot;:0,&quot;rounded&quot;:0};" parent="houy_Up9C2UZ-9tv4yLi-33" vertex="1">
                    <mxGeometry x="-582" y="263" width="10" height="290" as="geometry"/>
                </mxCell>
                <mxCell id="houy_Up9C2UZ-9tv4yLi-53" value="" style="html=1;points=[[0,0,0,0,5],[0,1,0,0,-5],[1,0,0,0,5],[1,1,0,0,-5]];perimeter=orthogonalPerimeter;outlineConnect=0;targetShapes=umlLifeline;portConstraint=eastwest;newEdgeStyle={&quot;curved&quot;:0,&quot;rounded&quot;:0};" parent="houy_Up9C2UZ-9tv4yLi-33" vertex="1">
                    <mxGeometry x="-305" y="433" width="10" height="81" as="geometry"/>
                </mxCell>
                <mxCell id="houy_Up9C2UZ-9tv4yLi-62" value="" style="html=1;points=[[0,0,0,0,5],[0,1,0,0,-5],[1,0,0,0,5],[1,1,0,0,-5]];perimeter=orthogonalPerimeter;outlineConnect=0;targetShapes=umlLifeline;portConstraint=eastwest;newEdgeStyle={&quot;curved&quot;:0,&quot;rounded&quot;:0};" parent="houy_Up9C2UZ-9tv4yLi-33" vertex="1">
                    <mxGeometry x="-183" y="434" width="10" height="83" as="geometry"/>
                </mxCell>
                <mxCell id="2" value="]&lt;div&gt;&lt;br&gt;&lt;/div&gt;&lt;div&gt;&lt;br&gt;&lt;/div&gt;" style="edgeStyle=none;html=1;curved=0;rounded=0;exitX=0;exitY=0;exitDx=0;exitDy=5;exitPerimeter=0;" parent="houy_Up9C2UZ-9tv4yLi-33" source="houy_Up9C2UZ-9tv4yLi-50" edge="1">
                    <mxGeometry relative="1" as="geometry">
                        <mxPoint x="-384" y="402" as="targetPoint"/>
                    </mxGeometry>
                </mxCell>
                <mxCell id="houy_Up9C2UZ-9tv4yLi-50" value="" style="html=1;points=[[0,0,0,0,5],[0,1,0,0,-5],[1,0,0,0,5],[1,1,0,0,-5]];perimeter=orthogonalPerimeter;outlineConnect=0;targetShapes=umlLifeline;portConstraint=eastwest;newEdgeStyle={&quot;curved&quot;:0,&quot;rounded&quot;:0};" parent="houy_Up9C2UZ-9tv4yLi-33" vertex="1">
                    <mxGeometry x="-388.5" y="397" width="10" height="31" as="geometry"/>
                </mxCell>
                <mxCell id="houy_Up9C2UZ-9tv4yLi-65" value="" style="html=1;points=[[0,0,0,0,5],[0,1,0,0,-5],[1,0,0,0,5],[1,1,0,0,-5]];perimeter=orthogonalPerimeter;outlineConnect=0;targetShapes=umlLifeline;portConstraint=eastwest;newEdgeStyle={&quot;curved&quot;:0,&quot;rounded&quot;:0};" parent="houy_Up9C2UZ-9tv4yLi-33" vertex="1">
                    <mxGeometry x="45" y="453" width="10" height="46" as="geometry"/>
                </mxCell>
                <mxCell id="houy_Up9C2UZ-9tv4yLi-51" value="Entityに変換" style="html=1;verticalAlign=bottom;endArrow=block;curved=0;rounded=0;entryX=0;entryY=0;entryDx=0;entryDy=5;fontSize=12;startSize=8;endSize=8;" parent="houy_Up9C2UZ-9tv4yLi-33" target="houy_Up9C2UZ-9tv4yLi-50" edge="1">
                    <mxGeometry relative="1" as="geometry">
                        <mxPoint x="-577.75" y="402" as="sourcePoint"/>
                    </mxGeometry>
                </mxCell>
                <mxCell id="houy_Up9C2UZ-9tv4yLi-52" value="ProductCategory" style="html=1;verticalAlign=bottom;endArrow=open;dashed=1;endSize=8;curved=0;rounded=0;exitX=0;exitY=1;exitDx=0;exitDy=-5;fontSize=12;" parent="houy_Up9C2UZ-9tv4yLi-33" source="houy_Up9C2UZ-9tv4yLi-50" edge="1">
                    <mxGeometry relative="1" as="geometry">
                        <mxPoint x="-577.75" y="422.9999999999999" as="targetPoint"/>
                    </mxGeometry>
                </mxCell>
                <mxCell id="houy_Up9C2UZ-9tv4yLi-54" value="&lt;br&gt;&lt;div&gt;&lt;br&gt;&lt;/div&gt;" style="html=1;verticalAlign=bottom;endArrow=block;curved=0;rounded=0;entryX=0;entryY=0;entryDx=0;entryDy=5;fontSize=12;startSize=8;endSize=8;" parent="houy_Up9C2UZ-9tv4yLi-33" edge="1">
                    <mxGeometry relative="1" as="geometry">
                        <mxPoint x="-577.5" y="467" as="sourcePoint"/>
                        <mxPoint x="-305" y="467" as="targetPoint"/>
                    </mxGeometry>
                </mxCell>
                <mxCell id="houy_Up9C2UZ-9tv4yLi-61" value="addProductCategory(ProductCategory)" style="edgeLabel;html=1;align=center;verticalAlign=middle;resizable=0;points=[];fontSize=12;" parent="houy_Up9C2UZ-9tv4yLi-54" vertex="1" connectable="0">
                    <mxGeometry x="0.0043" y="8" relative="1" as="geometry">
                        <mxPoint x="2" y="-2" as="offset"/>
                    </mxGeometry>
                </mxCell>
                <mxCell id="houy_Up9C2UZ-9tv4yLi-55" value="void" style="html=1;verticalAlign=bottom;endArrow=open;dashed=1;endSize=8;curved=0;rounded=0;exitX=0;exitY=1;exitDx=0;exitDy=-5;fontSize=12;" parent="houy_Up9C2UZ-9tv4yLi-33" edge="1">
                    <mxGeometry relative="1" as="geometry">
                        <mxPoint x="-577" y="493" as="targetPoint"/>
                        <mxPoint x="-304.5" y="493" as="sourcePoint"/>
                    </mxGeometry>
                </mxCell>
                <mxCell id="houy_Up9C2UZ-9tv4yLi-63" value="insert&lt;div&gt;(ProductCategory)&lt;/div&gt;" style="html=1;verticalAlign=bottom;endArrow=block;curved=0;rounded=0;entryX=0;entryY=0;entryDx=0;entryDy=5;fontSize=12;startSize=8;endSize=8;" parent="houy_Up9C2UZ-9tv4yLi-33" edge="1">
                    <mxGeometry x="0.0043" relative="1" as="geometry">
                        <mxPoint x="-298" y="461" as="sourcePoint"/>
                        <mxPoint x="-180.5" y="461" as="targetPoint"/>
                        <mxPoint as="offset"/>
                    </mxGeometry>
                </mxCell>
                <mxCell id="houy_Up9C2UZ-9tv4yLi-64" value="void" style="html=1;verticalAlign=bottom;endArrow=open;dashed=1;endSize=8;curved=0;rounded=0;fontSize=12;" parent="houy_Up9C2UZ-9tv4yLi-33" target="houy_Up9C2UZ-9tv4yLi-53" edge="1">
                    <mxGeometry relative="1" as="geometry">
                        <mxPoint x="-297.25" y="499" as="targetPoint"/>
                        <mxPoint x="-181" y="496" as="sourcePoint"/>
                    </mxGeometry>
                </mxCell>
                <mxCell id="houy_Up9C2UZ-9tv4yLi-67" value="void" style="html=1;verticalAlign=bottom;endArrow=open;dashed=1;endSize=8;curved=0;rounded=0;exitX=0;exitY=1;exitDx=0;exitDy=-5;fontSize=12;" parent="houy_Up9C2UZ-9tv4yLi-33" source="houy_Up9C2UZ-9tv4yLi-65" edge="1">
                    <mxGeometry relative="1" as="geometry">
                        <mxPoint x="-169" y="494" as="targetPoint"/>
                    </mxGeometry>
                </mxCell>
                <mxCell id="houy_Up9C2UZ-9tv4yLi-66" value="SQL(INSERT)" style="html=1;verticalAlign=bottom;endArrow=block;curved=0;rounded=0;entryX=0;entryY=0;entryDx=0;entryDy=5;fontSize=12;startSize=8;endSize=8;" parent="houy_Up9C2UZ-9tv4yLi-33" target="houy_Up9C2UZ-9tv4yLi-65" edge="1">
                    <mxGeometry relative="1" as="geometry">
                        <mxPoint x="-178.74999999999977" y="458.0000000000001" as="sourcePoint"/>
                    </mxGeometry>
                </mxCell>
                <mxCell id="KnMoUPqx_zOF8DZG7F0--1" value="FlashScopeにセット" style="html=1;align=left;spacingLeft=2;endArrow=block;rounded=0;edgeStyle=orthogonalEdgeStyle;curved=0;rounded=0;fontSize=12;startSize=8;endSize=8;" parent="houy_Up9C2UZ-9tv4yLi-33" edge="1">
                    <mxGeometry x="0.275" relative="1" as="geometry">
                        <mxPoint x="-572" y="512" as="sourcePoint"/>
                        <Array as="points">
                            <mxPoint x="-569" y="512"/>
                            <mxPoint x="-539" y="512"/>
                            <mxPoint x="-539" y="534"/>
                        </Array>
                        <mxPoint x="-564" y="534" as="targetPoint"/>
                        <mxPoint as="offset"/>
                    </mxGeometry>
                </mxCell>
                <mxCell id="houy_Up9C2UZ-9tv4yLi-36" value="confirm()" style="html=1;verticalAlign=bottom;endArrow=block;curved=0;rounded=0;entryX=0;entryY=0;entryDx=0;entryDy=5;fontSize=12;startSize=8;endSize=8;" parent="1" edge="1">
                    <mxGeometry relative="1" as="geometry">
                        <mxPoint x="20" y="105" as="sourcePoint"/>
                        <mxPoint x="112.5" y="105" as="targetPoint"/>
                    </mxGeometry>
                </mxCell>
                <mxCell id="houy_Up9C2UZ-9tv4yLi-37" value="確認画面" style="html=1;verticalAlign=bottom;endArrow=open;dashed=1;endSize=8;curved=0;rounded=0;exitX=0;exitY=1;exitDx=0;exitDy=-5;fontSize=12;" parent="1" edge="1">
                    <mxGeometry relative="1" as="geometry">
                        <mxPoint x="20" y="196.99999999999977" as="targetPoint"/>
                        <mxPoint x="112.5" y="196.99999999999977" as="sourcePoint"/>
                    </mxGeometry>
                </mxCell>
                <mxCell id="houy_Up9C2UZ-9tv4yLi-40" value="ProductCategory&lt;div&gt;Form&lt;/div&gt;" style="html=1;verticalAlign=bottom;endArrow=open;dashed=1;endSize=8;curved=0;rounded=0;exitX=0;exitY=1;exitDx=0;exitDy=-5;fontSize=12;" parent="1" edge="1">
                    <mxGeometry x="-0.005" y="39" relative="1" as="geometry">
                        <mxPoint x="123" y="110" as="targetPoint"/>
                        <mxPoint x="222.5" y="110" as="sourcePoint"/>
                        <mxPoint x="1" as="offset"/>
                    </mxGeometry>
                </mxCell>
                <mxCell id="houy_Up9C2UZ-9tv4yLi-39" value="セット" style="html=1;verticalAlign=bottom;endArrow=block;curved=0;rounded=0;entryX=0;entryY=0;entryDx=0;entryDy=5;fontSize=12;startSize=8;endSize=8;" parent="1" source="houy_Up9C2UZ-9tv4yLi-35" target="houy_Up9C2UZ-9tv4yLi-38" edge="1">
                    <mxGeometry relative="1" as="geometry">
                        <mxPoint x="126" y="129" as="sourcePoint"/>
                    </mxGeometry>
                </mxCell>
                <mxCell id="houy_Up9C2UZ-9tv4yLi-42" value="バリデート" style="html=1;align=left;spacingLeft=2;endArrow=block;rounded=0;edgeStyle=orthogonalEdgeStyle;curved=0;rounded=0;fontSize=12;startSize=8;endSize=8;" parent="1" edge="1">
                    <mxGeometry x="0.2105" y="9" relative="1" as="geometry">
                        <mxPoint x="235" y="90" as="sourcePoint"/>
                        <Array as="points">
                            <mxPoint x="266" y="90"/>
                            <mxPoint x="266" y="112"/>
                        </Array>
                        <mxPoint x="243" y="112" as="targetPoint"/>
                        <mxPoint as="offset"/>
                    </mxGeometry>
                </mxCell>
                <mxCell id="houy_Up9C2UZ-9tv4yLi-43" value="" style="shape=link;html=1;rounded=0;fontSize=12;startSize=8;endSize=8;curved=1;" parent="1" target="houy_Up9C2UZ-9tv4yLi-33" edge="1">
                    <mxGeometry width="100" relative="1" as="geometry">
                        <mxPoint x="19" y="253" as="sourcePoint"/>
                        <mxPoint x="743.5" y="253" as="targetPoint"/>
                    </mxGeometry>
                </mxCell>
                <mxCell id="houy_Up9C2UZ-9tv4yLi-49" value="リダイレクト" style="html=1;verticalAlign=bottom;endArrow=open;dashed=1;endSize=8;curved=0;rounded=0;exitX=0;exitY=1;exitDx=0;exitDy=-5;fontSize=12;" parent="1" source="houy_Up9C2UZ-9tv4yLi-47" target="houy_Up9C2UZ-9tv4yLi-1" edge="1">
                    <mxGeometry relative="1" as="geometry">
                        <mxPoint x="6" y="697" as="targetPoint"/>
                    </mxGeometry>
                </mxCell>
                <mxCell id="houy_Up9C2UZ-9tv4yLi-48" value="execute()" style="html=1;verticalAlign=bottom;endArrow=block;curved=0;rounded=0;entryX=0;entryY=0;entryDx=0;entryDy=5;fontSize=12;startSize=8;endSize=8;" parent="1" source="houy_Up9C2UZ-9tv4yLi-1" target="houy_Up9C2UZ-9tv4yLi-47" edge="1">
                    <mxGeometry relative="1" as="geometry">
                        <mxPoint x="45" y="616" as="sourcePoint"/>
                    </mxGeometry>
                </mxCell>
                <mxCell id="houy_Up9C2UZ-9tv4yLi-57" value="complete()" style="html=1;verticalAlign=bottom;endArrow=block;curved=0;rounded=0;entryX=0;entryY=0;entryDx=0;entryDy=5;fontSize=12;startSize=8;endSize=8;" parent="1" source="houy_Up9C2UZ-9tv4yLi-1" target="houy_Up9C2UZ-9tv4yLi-56" edge="1">
                    <mxGeometry relative="1" as="geometry">
                        <mxPoint x="38" y="839" as="sourcePoint"/>
                    </mxGeometry>
                </mxCell>
                <mxCell id="houy_Up9C2UZ-9tv4yLi-58" value="完了画面" style="html=1;verticalAlign=bottom;endArrow=open;dashed=1;endSize=8;curved=0;rounded=0;exitX=0;exitY=1;exitDx=0;exitDy=-5;fontSize=12;" parent="1" source="houy_Up9C2UZ-9tv4yLi-56" target="houy_Up9C2UZ-9tv4yLi-1" edge="1">
                    <mxGeometry relative="1" as="geometry">
                        <mxPoint x="38" y="909" as="targetPoint"/>
                    </mxGeometry>
                </mxCell>
                <mxCell id="5" value="chackProductCategory(ProductCategory)" style="html=1;verticalAlign=bottom;endArrow=block;curved=0;rounded=0;entryX=0;entryY=0;entryDx=0;entryDy=5;" parent="1" edge="1">
                    <mxGeometry x="-0.0227" y="8" relative="1" as="geometry">
                        <mxPoint x="120" y="329" as="sourcePoint"/>
                        <mxPoint x="384" y="329" as="targetPoint"/>
                        <mxPoint as="offset"/>
                    </mxGeometry>
                </mxCell>
                <mxCell id="6" value="return true" style="html=1;verticalAlign=bottom;endArrow=open;dashed=1;endSize=8;curved=0;rounded=0;exitX=0;exitY=1;exitDx=0;exitDy=-5;" parent="1" edge="1">
                    <mxGeometry x="-0.0076" y="24" relative="1" as="geometry">
                        <mxPoint x="125" y="195" as="targetPoint"/>
                        <mxPoint x="387" y="195" as="sourcePoint"/>
                        <mxPoint as="offset"/>
                    </mxGeometry>
                </mxCell>
                <mxCell id="8" value="selectByName&lt;div&gt;(ProductCategory)&lt;/div&gt;" style="html=1;verticalAlign=bottom;endArrow=block;curved=0;rounded=0;entryX=0;entryY=0;entryDx=0;entryDy=5;" parent="1" source="4" target="7" edge="1">
                    <mxGeometry relative="1" as="geometry">
                        <mxPoint x="389.5" y="91" as="sourcePoint"/>
                    </mxGeometry>
                </mxCell>
                <mxCell id="9" value="return List&amp;lt;Category&amp;gt;" style="html=1;verticalAlign=bottom;endArrow=open;dashed=1;endSize=8;curved=0;rounded=0;exitX=0;exitY=1;exitDx=0;exitDy=-5;" parent="1" edge="1">
                    <mxGeometry x="0.022" y="30" relative="1" as="geometry">
                        <mxPoint x="392" y="198" as="targetPoint"/>
                        <mxPoint x="505.5" y="198" as="sourcePoint"/>
                        <mxPoint as="offset"/>
                    </mxGeometry>
                </mxCell>
                <mxCell id="12" value="resultset" style="html=1;verticalAlign=bottom;endArrow=open;dashed=1;endSize=8;curved=0;rounded=0;exitX=0;exitY=1;exitDx=0;exitDy=-5;" parent="1" edge="1">
                    <mxGeometry x="-0.0353" y="28" relative="1" as="geometry">
                        <mxPoint x="516" y="202" as="targetPoint"/>
                        <mxPoint x="728.5" y="202" as="sourcePoint"/>
                        <mxPoint as="offset"/>
                    </mxGeometry>
                </mxCell>
                <mxCell id="11" value="SQL&lt;div&gt;(SELECT categoryName&amp;nbsp;&lt;/div&gt;&lt;div&gt;FROM PRODUCT_CATEGORY&amp;nbsp;&lt;/div&gt;&lt;div&gt;WHERE categoryName&lt;/div&gt;&lt;div&gt;＝｛productcategoryname｝)&lt;/div&gt;" style="html=1;verticalAlign=bottom;endArrow=block;curved=0;rounded=0;" parent="1" target="10" edge="1">
                    <mxGeometry y="11" relative="1" as="geometry">
                        <mxPoint x="517.75" y="185" as="sourcePoint"/>
                        <mxPoint x="693" y="187" as="targetPoint"/>
                        <mxPoint as="offset"/>
                    </mxGeometry>
                </mxCell>
                <mxCell id="13" value="" style="html=1;points=[[0,0,0,0,5],[0,1,0,0,-5],[1,0,0,0,5],[1,1,0,0,-5]];perimeter=orthogonalPerimeter;outlineConnect=0;targetShapes=umlLifeline;portConstraint=eastwest;newEdgeStyle={&quot;curved&quot;:0,&quot;rounded&quot;:0};" vertex="1" parent="1">
                    <mxGeometry x="384" y="320" width="10" height="50" as="geometry"/>
                </mxCell>
                <mxCell id="14" value="" style="html=1;points=[[0,0,0,0,5],[0,1,0,0,-5],[1,0,0,0,5],[1,1,0,0,-5]];perimeter=orthogonalPerimeter;outlineConnect=0;targetShapes=umlLifeline;portConstraint=eastwest;newEdgeStyle={&quot;curved&quot;:0,&quot;rounded&quot;:0};" vertex="1" parent="1">
                    <mxGeometry x="506" y="323" width="10" height="47" as="geometry"/>
                </mxCell>
                <mxCell id="15" value="" style="html=1;points=[[0,0,0,0,5],[0,1,0,0,-5],[1,0,0,0,5],[1,1,0,0,-5]];perimeter=orthogonalPerimeter;outlineConnect=0;targetShapes=umlLifeline;portConstraint=eastwest;newEdgeStyle={&quot;curved&quot;:0,&quot;rounded&quot;:0};" vertex="1" parent="1">
                    <mxGeometry x="734" y="325" width="10" height="53" as="geometry"/>
                </mxCell>
                <mxCell id="16" value="return true" style="html=1;verticalAlign=bottom;endArrow=open;dashed=1;endSize=8;curved=0;rounded=0;exitX=0;exitY=1;exitDx=0;exitDy=-5;" edge="1" parent="1">
                    <mxGeometry x="-0.0076" y="24" relative="1" as="geometry">
                        <mxPoint x="124" y="350" as="targetPoint"/>
                        <mxPoint x="386" y="350" as="sourcePoint"/>
                        <mxPoint as="offset"/>
                    </mxGeometry>
                </mxCell>
                <mxCell id="17" value="selectByName&lt;div&gt;(ProductCategory)&lt;/div&gt;" style="html=1;verticalAlign=bottom;endArrow=block;curved=0;rounded=0;entryX=0;entryY=0;entryDx=0;entryDy=5;" edge="1" parent="1" source="13" target="14">
                    <mxGeometry relative="1" as="geometry">
                        <mxPoint x="388.5" y="246" as="sourcePoint"/>
                    </mxGeometry>
                </mxCell>
                <mxCell id="18" value="return List&amp;lt;Category&amp;gt;" style="html=1;verticalAlign=bottom;endArrow=open;dashed=1;endSize=8;curved=0;rounded=0;exitX=0;exitY=1;exitDx=0;exitDy=-5;" edge="1" parent="1">
                    <mxGeometry x="0.022" y="30" relative="1" as="geometry">
                        <mxPoint x="391" y="353" as="targetPoint"/>
                        <mxPoint x="504.5" y="353" as="sourcePoint"/>
                        <mxPoint as="offset"/>
                    </mxGeometry>
                </mxCell>
                <mxCell id="19" value="resultset" style="html=1;verticalAlign=bottom;endArrow=open;dashed=1;endSize=8;curved=0;rounded=0;exitX=0;exitY=1;exitDx=0;exitDy=-5;" edge="1" parent="1">
                    <mxGeometry x="-0.0353" y="28" relative="1" as="geometry">
                        <mxPoint x="515" y="357" as="targetPoint"/>
                        <mxPoint x="727.5" y="357" as="sourcePoint"/>
                        <mxPoint as="offset"/>
                    </mxGeometry>
                </mxCell>
                <mxCell id="20" value="SQL&lt;div&gt;(SELECT categoryName&amp;nbsp;&lt;/div&gt;&lt;div&gt;FROM PRODUCT_CATEGORY&amp;nbsp;&lt;/div&gt;&lt;div&gt;WHERE categoryName&lt;/div&gt;&lt;div&gt;＝｛productcategoryname｝)&lt;/div&gt;" style="html=1;verticalAlign=bottom;endArrow=block;curved=0;rounded=0;" edge="1" parent="1" target="15">
                    <mxGeometry y="11" relative="1" as="geometry">
                        <mxPoint x="516.75" y="340" as="sourcePoint"/>
                        <mxPoint x="692" y="342" as="targetPoint"/>
                        <mxPoint as="offset"/>
                    </mxGeometry>
                </mxCell>
                <mxCell id="21" value="chackProductCategory(ProductCategory)" style="html=1;verticalAlign=bottom;endArrow=block;curved=0;rounded=0;entryX=0;entryY=0;entryDx=0;entryDy=5;" edge="1" parent="1">
                    <mxGeometry relative="1" as="geometry">
                        <mxPoint x="131" y="180" as="sourcePoint"/>
                        <mxPoint x="395" y="180" as="targetPoint"/>
                    </mxGeometry>
                </mxCell>
            </root>
        </mxGraphModel>
    </diagram>
</mxfile>